<svg xmlns="http://www.w3.org/2000/svg" viewBox="0 0 600 600">
  <g fill="rgba(30,136,229,0.2)" stroke="rgba(30,136,229,0.8)" stroke-width="3">
    <path d="M340 70 Q370 75 380 100 L385 130 Q400 150 390 170 L385 200 Q395 220 390 240 L380 260 Q375 280 380 300 L385 320 Q375 350 365 370 L355 390 Q345 410 350 430 L355 450 Q345 460 335 450 L330 430 Q320 410 325 390 L330 370 Q325 350 320 330 L315 310 Q305 290 310 270 L315 250 Q305 230 300 210 L295 190 Q285 170 295 150 L300 130 Q290 110 300 100 L315 90 Q325 80 340 70 Z"/>
    <path d="M290 130 Q275 140 270 160 L265 180 Q255 200 260 220 L265 240 Q255 260 260 280 L265 300 Q255 320 260 340 L265 360 Q255 380 260 400 L265 420 Q275 430 285 420 L290 400 Q300 380 295 360 L290 340 Q300 320 295 300 L290 280 Q300 260 295 240 L290 220 Q300 200 295 180 L290 160 Q300 140 290 130 Z"/>
    <path d="M260 210 Q230 215 220 235 L215 255 Q205 275 210 295 L215 315 Q205 335 195 355 L180 375 Q165 395 155 415 L145 435 Q140 450 150 460 L165 470 Q180 480 195 485 L215 490 Q235 495 255 490 L270 480 Q285 470 290 450 L295 430 Q300 410 305 390 L310 370 Q305 350 300 330 L295 310 Q300 290 305 270 L310 250 Q305 230 300 220 L290 215 Q275 210 260 210 Z"/>
    <path d="M400 270 Q415 275 420 295 L425 315 Q420 335 410 350 L400 365 Q390 375 385 365 L390 345 Q395 325 390 305 L395 285 Q397 275 400 270 Z"/>
  </g>
  <g>
    <circle cx="340" cy="160" r="7" fill="#1e88e5"/>
    <circle cx="280" cy="230" r="6" fill="#1e88e5"/>
    <circle cx="360" cy="290" r="5" fill="#1e88e5"/>
    <circle cx="240" cy="380" r="6" fill="#1e88e5"/>
    <circle cx="310" cy="410" r="5" fill="#1e88e5"/>
  </g>
</svg>